  <svg
            viewBox="0 0 11 10"
            fill="none"
            xmlns="http://www.w3.org/2000/svg"
          >
          <title>Cross Icon</title>
            <path
              d="M7.1479 5L9.99079 2.1571C10.3397 1.80824 10.3397 1.24261 9.99079 0.893466L9.35898 0.261648C9.01011 -0.0872159 8.44449 -0.0872159 8.09534 0.261648L5.25244 3.10455L2.40954 0.261648C2.06068 -0.0872159 1.49506 -0.0872159 1.14591 0.261648L0.514089 0.893466C0.165226 1.24233 0.165226 1.80795 0.514089 2.1571L3.35699 5L0.514089 7.8429C0.165226 8.19176 0.165226 8.75739 0.514089 9.10653L1.14591 9.73835C1.49477 10.0872 2.06068 10.0872 2.40954 9.73835L5.25244 6.89545L8.09534 9.73835C8.4442 10.0872 9.01011 10.0872 9.35898 9.73835L9.99079 9.10653C10.3397 8.75767 10.3397 8.19205 9.99079 7.8429L7.1479 5Z"
              fill="#1F4254"
            />
          </svg>